<svg width="18" height="18" viewBox="0 0 18 18" fill="none" xmlns="http://www.w3.org/2000/svg">
<path d="M17.0001 17L12.9501 12.95M12.9501 12.95C13.6002 12.2999 14.1158 11.5282 14.4676 10.6789C14.8194 9.82959 15.0005 8.91929 15.0005 7.99999C15.0005 7.08069 14.8194 6.17039 14.4676 5.32107C14.1158 4.47175 13.6002 3.70003 12.9501 3.04999C12.3001 2.39995 11.5284 1.8843 10.679 1.5325C9.82971 1.1807 8.91941 0.999634 8.00011 0.999634C7.08081 0.999634 6.17051 1.1807 5.32119 1.5325C4.47187 1.8843 3.70016 2.39995 3.05011 3.04999C1.73729 4.36281 0.999756 6.14338 0.999756 7.99999C0.999756 9.8566 1.73729 11.6372 3.05011 12.95C4.36293 14.2628 6.1435 15.0003 8.00011 15.0003C9.85672 15.0003 11.6373 14.2628 12.9501 12.95Z" stroke="#020000" stroke-width="2" stroke-linecap="round" stroke-linejoin="round"/>
</svg>
